<svg id="visual" viewBox="0 0 900 600" width="900" height="600" xmlns="http://www.w3.org/2000/svg" xmlns:xlink="http://www.w3.org/1999/xlink" version="1.1"><rect x="0" y="0" width="900" height="600" fill="#002233"></rect><path d="M0 358L10.7 364.2C21.3 370.3 42.7 382.7 64.2 388C85.7 393.3 107.3 391.7 128.8 380.2C150.3 368.7 171.7 347.3 193 345.7C214.3 344 235.7 362 257 370.8C278.3 379.7 299.7 379.3 321.2 391.7C342.7 404 364.3 429 385.8 431.2C407.3 433.3 428.7 412.7 450 394.7C471.3 376.7 492.7 361.3 514.2 371.5C535.7 381.7 557.3 417.3 578.8 421.5C600.3 425.7 621.7 398.3 643 378.3C664.3 358.3 685.7 345.7 707 355.7C728.3 365.7 749.7 398.3 771.2 420C792.7 441.7 814.3 452.3 835.8 431.5C857.3 410.7 878.7 358.3 889.3 332.2L900 306L900 601L889.3 601C878.7 601 857.3 601 835.8 601C814.3 601 792.7 601 771.2 601C749.7 601 728.3 601 707 601C685.7 601 664.3 601 643 601C621.7 601 600.3 601 578.8 601C557.3 601 535.7 601 514.2 601C492.7 601 471.3 601 450 601C428.7 601 407.3 601 385.8 601C364.3 601 342.7 601 321.2 601C299.7 601 278.3 601 257 601C235.7 601 214.3 601 193 601C171.7 601 150.3 601 128.8 601C107.3 601 85.7 601 64.2 601C42.7 601 21.3 601 10.7 601L0 601Z" fill="#0d3572" stroke-linecap="round" stroke-linejoin="miter"></path></svg>